<svg version="1" xmlns="http://www.w3.org/2000/svg" width="348" height="348" viewBox="0 0 261.000000 261.000000"><path d="M10.8 2C5.9 4.6 2.4 9.5 1.1 15.2.4 18.4.1 56.7.3 132.7l.2 112.8 2.1 4c2.5 4.6 4.5 6.6 9.1 8.9 2.9 1.4 14.2 1.6 118.8 1.6 94.8 0 116.1-.2 118.8-1.4 4.2-1.7 9.3-7.6 10.7-12.3.8-2.7 1-37.9.8-119l-.3-115.1-3.1-3.9c-1.7-2.1-4.6-4.8-6.4-6.1L247.7 0H131.1C17.4.1 14.4.1 10.8 2zm236.9 1.1c4.2 1.5 9.2 6.8 10.3 10.9 1.5 5.3 1.3 227.7-.1 232.1-1.5 4.3-5.5 8.8-9.6 10.5-2.7 1.2-22.7 1.4-117.5 1.4-113.7 0-114.2 0-118.5-2.1-2.3-1.1-5.3-3.5-6.5-5.2l-2.3-3.2v-235l2.3-3.3c1.3-1.8 4-4.1 6-5.2 3.6-1.9 6.9-1.9 118.4-2 78.5 0 115.6.3 117.5 1.1z"/><path d="M16.5 9.9c-1.1.5-2.9 1.9-4 3.1-2 2.2-2 3.8-2.3 113.9-.1 61.4 0 113.1.3 115 .4 1.8 1.7 4.4 3 5.7l2.4 2.4h229.8l2.7-2.5 2.6-2.4V130.5c0-80.2-.3-115.2-1.1-116.7-2.6-4.9.1-4.8-119.6-4.7-61.5 0-112.7.4-113.8.8zm162 24.6c8.8 2.3 14 5.1 20.4 11 6 5.6 10.2 12.2 12.7 20.2 2.1 6.6 3 34.3 1.5 45.3-2.4 18.2-13.2 32-30.1 38.7-3.9 1.5-9.3 1.8-40 2.3l-35.5.5-.3 39.2-.2 39.3H67V33h52.8c44.3 0 53.7.2 58.7 1.5z"/><path d="M107.7 64.7c-.4.3-.7 13.2-.7 28.5V121h25c26.8 0 29.6-.4 34.9-5.3 4.8-4.5 6.1-9.1 6.1-23.2s-1.3-18.7-6.1-23.2c-5.1-4.6-9.4-5.3-34.9-5.3-13 0-24 .3-24.3.7z"/></svg>